<svg xmlns="http://www.w3.org/2000/svg" viewBox="0 0 48 48"><defs><style>.cls-1{fill:#07c;}</style></defs><title>icon_access</title><g id="_09-交通アクセス" data-name="09-交通アクセス"><path class="cls-1" d="M48,27.5C48,18.81,45,9,31.94,9H2a2,2,0,0,0-2,2H0V37H0a2,2,0,0,0,2,2H37.12a2,2,0,0,0,1.81-1.17L41,32h5.11A2,2,0,0,0,48,30.23C48,30,48,27.68,48,27.5ZM26.75,14a1.6,1.6,0,0,1,1.68,2.07,2.93,2.93,0,0,1,2.14,0,1.52,1.52,0,0,1-.07-.44,1.75,1.75,0,1,1,1.75,1.63,2.13,2.13,0,0,1-.34,0,2.39,2.39,0,0,1,.34,1.2,2.76,2.76,0,0,1-5.5,0,2.39,2.39,0,0,1,.33-1.2,2.09,2.09,0,0,1-.33,0,1.64,1.64,0,1,1,0-3.27Zm-11,0a1.6,1.6,0,0,1,1.68,2.07,2.93,2.93,0,0,1,2.14,0,1.52,1.52,0,0,1-.07-.44,1.75,1.75,0,1,1,1.75,1.63,2.13,2.13,0,0,1-.34,0,2.39,2.39,0,0,1,.34,1.2,2.76,2.76,0,0,1-5.5,0,2.39,2.39,0,0,1,.33-1.2,2.09,2.09,0,0,1-.33,0,1.64,1.64,0,1,1,0-3.27Zm-11,0a1.6,1.6,0,0,1,1.68,2.07,2.93,2.93,0,0,1,2.14,0,1.52,1.52,0,0,1-.07-.44A1.7,1.7,0,0,1,10.25,14a1.64,1.64,0,1,1,0,3.27,2.13,2.13,0,0,1-.34,0,2.39,2.39,0,0,1,.34,1.2A2.67,2.67,0,0,1,7.5,21a2.66,2.66,0,0,1-2.75-2.57,2.39,2.39,0,0,1,.33-1.2,2.09,2.09,0,0,1-.33,0,1.64,1.64,0,1,1,0-3.27ZM45,29H3V26H45Zm-9-8V11c5.83,1.18,8.73,6.72,9,10Z"/></g></svg>